<?xml version="1.0" standalone="no"?>
<!DOCTYPE svg PUBLIC "-//W3C//DTD SVG 1.0//EN" "http://www.w3.org/TR/2001/REC-SVG-20010904/DTD/svg10.dtd">
<svg xmlns="http://www.w3.org/2000/svg" xmlns:xlink="http://www.w3.org/1999/xlink" id="body_1" width="100" height="100">

<g transform="matrix(0.4805556 0 0 0.4805556 0 0)">
	<g transform="matrix(0.1 0 -0 -0.1 0 360)">
        <path d="M1515 2576C 1498 2569 1476 2550 1466 2534C 1456 2518 1431 2484 1412 2458L1412 2458L1376 2410L1218 2410L1060 2410L1060 2434C 1060 2483 1051 2490 994 2490L994 2490L940 2490L940 2450L940 2410L810 2410C 693 2410 678 2408 660 2390C 640 2370 640 2357 640 1635C 640 913 640 900 660 880C 680 860 693 860 1805 860C 2917 860 2930 860 2950 880C 2970 900 2970 913 2970 1639L2970 1639L2970 2379L2948 2394C 2933 2405 2902 2410 2853 2410L2853 2410L2781 2410L2778 2493L2775 2575L2620 2575L2465 2575L2462 2493L2459 2410L2352 2410L2244 2410L2209 2458C 2190 2484 2166 2518 2156 2533C 2124 2586 2096 2590 1808 2590C 1612 2589 1537 2586 1515 2576zM1978 2457C 1983 2393 1976 2390 1815 2390C 1736 2390 1665 2393 1656 2396C 1645 2400 1640 2415 1640 2444C 1640 2468 1643 2490 1647 2494C 1651 2497 1726 2499 1814 2498L1814 2498L1975 2495L1978 2457zM2778 2124L2781 2043L2750 2037C 2733 2033 2664 2033 2596 2037L2596 2037L2472 2043L2466 2073C 2457 2116 2459 2155 2470 2185L2470 2185L2480 2211L2627 2208L2775 2205L2778 2124zM1958 2056C 2069 2026 2183 1933 2236 1828C 2318 1667 2302 1482 2196 1345C 2123 1252 2052 1204 1943 1176C 1784 1135 1632 1177 1512 1296C 1266 1541 1370 1950 1705 2056C 1759 2073 1893 2073 1958 2056z" stroke="none" fill="#000000" fill-rule="nonzero" />
        <path d="M1768 2000C 1604 1972 1480 1847 1449 1677C 1399 1408 1669 1168 1936 1245C 2052 1278 2130 1345 2184 1460C 2212 1519 2215 1534 2215 1620C 2215 1702 2211 1723 2188 1773C 2153 1847 2071 1933 2006 1964C 1978 1977 1928 1993 1896 1999C 1831 2011 1835 2011 1768 2000zM1944 1919C 2207 1821 2227 1453 1975 1329C 1817 1251 1625 1316 1542 1474C 1519 1518 1515 1537 1515 1615C 1515 1724 1538 1779 1612 1852C 1699 1936 1828 1963 1944 1919z" stroke="none" fill="#000000" fill-rule="nonzero" />
        <path d="M1751 1763C 1679 1727 1645 1618 1683 1544C 1748 1419 1926 1421 1982 1547C 2018 1629 1987 1725 1910 1765C 1872 1785 1793 1784 1751 1763z" stroke="none" fill="#000000" fill-rule="nonzero" />
	</g>
</g>
</svg>
