<?xml version="1.0" encoding="utf-8"?>
<!-- Generator: Adobe Illustrator 25.0.1, SVG Export Plug-In . SVG Version: 6.00 Build 0)  -->
<svg version="1.0" id="Layer_1" xmlns="http://www.w3.org/2000/svg" xmlns:xlink="http://www.w3.org/1999/xlink" x="0px" y="0px"
	 viewBox="0 0 370 242" style="enable-background:new 0 0 370 242;" xml:space="preserve">
<style type="text/css">
	.st0{fill:#FDC113;}
	.st1{fill:#FFD839;}
</style>
<g>
	<path class="st0" d="M275.9,78l-21.6,21.2c5.4,5.7,8.7,13.4,8.7,21.8c0,17.5-14.2,31.7-31.7,31.7c-8.7,0-16.6-3.5-22.3-9.2
		l-21.6,21.2c11.2,11.3,26.8,18.3,43.9,18.3c34.2,0,62-27.8,62-62C293.3,104.3,286.7,89.1,275.9,78z"/>
	<path class="st1" d="M275.9,78l-21.6,21.2c-5.8-6.1-13.9-9.9-23-9.9c-17.5,0-31.7,14.2-31.7,31.7c0,8.8,3.6,16.8,9.4,22.5
		l-21.6,21.2c-11.1-11.2-18-26.7-18-43.7c0-34.2,27.7-62,62-62C248.8,59,264.6,66.3,275.9,78z"/>
	<path class="st1" d="M161.2,143.3c-5.8,5.8-13.7,9.4-22.5,9.4c-6.4,0-12.4-1.9-17.4-5.2l-22.4,21c10.8,9.1,24.7,14.5,39.9,14.5
		c15.2,0,29.2-5.5,39.9-14.6L161.2,143.3z M138.7,59c-15,0-28.8,5.3-39.5,14.2l22.5,21c4.9-3.1,10.7-4.9,17-4.9
		c9.1,0,17.2,3.8,23,9.9c0,0,0.1,0.1,0.1,0.1l17.1-25.5C168,64.6,154,59,138.7,59z"/>
	<path class="st0" d="M107,121c0-11.2,5.9-21.1,14.7-26.8l-22.5-21c-1.9,1.6-3.8,3.3-5.5,5.2c-10.5,11.1-17,26.1-17,42.6
		c0,15.8,5.9,30.1,15.6,41.1c0.8,0.9,1.6,1.8,2.5,2.6c1.3,1.3,2.6,2.5,4,3.7l22.4-21c-1.8-1.1-3.4-2.5-4.9-3.9
		C110.6,137.8,107,129.8,107,121z"/>
</g>
</svg>
