<?xml version="1.0" standalone="no"?>
<!DOCTYPE svg PUBLIC "-//W3C//DTD SVG 1.0//EN" "http://www.w3.org/TR/2001/REC-SVG-20010904/DTD/svg10.dtd">
<svg xmlns="http://www.w3.org/2000/svg" xmlns:xlink="http://www.w3.org/1999/xlink" id="body_1" width="92" height="69">

<g transform="matrix(2.875 0 0 2.875 11.5 -0)">
    <path d="M16.9414 4.9757C 15.090126 4.9881024 13.318403 5.7299495 12.010601 7.0403C 9.321085 9.736692 9.266471 14.083992 11.887401 16.8471L11.887401 16.8471L14.2824 14.452099C 12.982399 13.011029 13.039354 10.804097 14.411957 9.432001C 15.784559 8.059905 17.991512 8.003765 19.4321 9.304298L19.4321 9.304298L21.8291 6.9053984C 20.510391 5.6548066 18.758764 4.9632516 16.941399 4.9756985L16.941399 4.9756985L16.9414 4.9757zM7.07 4.9855C 5.2523375 4.97354 3.500634 5.665791 2.1822 6.9171L2.1822 6.9171L4.5733 9.3082C 6.013697 8.004799 8.22337 8.060716 9.596 9.4353L9.596 9.4353L11.3301 6.4616L11.2304 6.3813996C 10.027975 5.484279 8.570187 4.9951606 7.07 4.9855zM22.0793 7.1576L19.6901 9.5487C 20.999279 10.988558 20.946678 13.202839 19.570608 14.57891C 18.194538 15.95498 15.980257 16.00758 14.5404 14.6984005L14.5404 14.6984005L12.133699 17.1052C 14.902296 19.718906 19.247713 19.656174 21.939709 16.963638C 24.631704 14.271101 24.693562 9.925671 22.0793 7.1575994zM1.932 7.1674C -0.64331293 9.880515 -0.64419174 14.134821 1.9300001 16.848999L1.9300001 16.848999L4.327 14.451999C 3.0685956 13.064857 3.0668662 10.949596 4.323 9.560398zM9.596 14.5909C 8.216 15.972501 6.0097 16.0019 4.5792 14.704301L4.5792 14.704301L2.1821997 17.0993C 4.6514997 19.4321 8.4452 19.6746 11.1894 17.6448L11.1894 17.6448L11.3262 17.5333z" stroke="none" fill="#000000" fill-rule="nonzero" />
</g>
</svg>