<?xml version="1.0" standalone="no"?>
<!DOCTYPE svg PUBLIC "-//W3C//DTD SVG 20010904//EN"
 "http://www.w3.org/TR/2001/REC-SVG-20010904/DTD/svg10.dtd">
<svg version="1.0" xmlns="http://www.w3.org/2000/svg"
 width="360.000000pt" height="360.000000pt" viewBox="0 0 360.000000 360.000000"
 preserveAspectRatio="xMidYMid meet">

<g transform="translate(0.000000,360.000000) scale(0.100000,-0.100000)"
fill="#000000" stroke="none">
<path d="M1515 2576 c-17 -7 -39 -26 -49 -42 -10 -16 -35 -50 -54 -76 l-36
-48 -158 0 -158 0 0 24 c0 49 -9 56 -66 56 l-54 0 0 -40 0 -40 -130 0 c-117 0
-132 -2 -150 -20 -20 -20 -20 -33 -20 -755 0 -722 0 -735 20 -755 20 -20 33
-20 1145 -20 1112 0 1125 0 1145 20 20 20 20 33 20 759 l0 740 -22 15 c-15 11
-46 16 -95 16 l-72 0 -3 83 -3 82 -155 0 -155 0 -3 -82 -3 -83 -107 0 -108 0
-35 48 c-19 26 -43 60 -53 75 -32 53 -60 57 -348 57 -196 -1 -271 -4 -293 -14z
m463 -119 c5 -64 -2 -67 -163 -67 -79 0 -150 3 -159 6 -11 4 -16 19 -16 48 0
24 3 46 7 50 4 3 79 5 167 4 l161 -3 3 -38z m800 -333 l3 -81 -31 -6 c-17 -4
-86 -4 -154 0 l-124 6 -6 30 c-9 43 -7 82 4 112 l10 26 147 -3 148 -3 3 -81z
m-820 -68 c111 -30 225 -123 278 -228 82 -161 66 -346 -40 -483 -73 -93 -144
-141 -253 -169 -159 -41 -311 1 -431 120 -246 245 -142 654 193 760 54 17 188
17 253 0z"/>
<path d="M1768 2000 c-164 -28 -288 -153 -319 -323 -50 -269 220 -509 487
-432 116 33 194 100 248 215 28 59 31 74 31 160 0 82 -4 103 -27 153 -35 74
-117 160 -182 191 -28 13 -78 29 -110 35 -65 12 -61 12 -128 1z m176 -81 c263
-98 283 -466 31 -590 -158 -78 -350 -13 -433 145 -23 44 -27 63 -27 141 0 109
23 164 97 237 87 84 216 111 332 67z"/>
<path d="M1751 1763 c-72 -36 -106 -145 -68 -219 65 -125 243 -123 299 3 36
82 5 178 -72 218 -38 20 -117 19 -159 -2z"/>
</g>
</svg>
