<?xml version="1.0" standalone="no"?>
<!DOCTYPE svg PUBLIC "-//W3C//DTD SVG 1.0//EN" "http://www.w3.org/TR/2001/REC-SVG-20010904/DTD/svg10.dtd">
<svg xmlns="http://www.w3.org/2000/svg" xmlns:xlink="http://www.w3.org/1999/xlink" id="body_1" width="427" height="65">

<g transform="matrix(1.3343749 0 0 1.3265306 0 0)">
	<g transform="matrix(0.1 0 -0 -0.1 0 49)">
        <path d="M2035 465C 1981 448 1971 442 1990 439C 2011 436 2015 429 2018 393L2018 393L2021 352L1982 357C 1873 372 1785 238 1820 111C 1837 46 1878 10 1933 10C 1965 10 1982 16 1996 31L1996 31L2014 51L2022 31C 2028 13 2038 10 2097 10L2097 10L2164 10L2142 30C 2121 50 2120 57 2120 270C 2120 391 2117 490 2113 489C 2108 488 2074 478 2035 465zM2015 200L2015 65L1985 65C 1944 65 1920 113 1920 197C 1920 293 1948 345 1995 338C 2014 335 2015 328 2015 200z" stroke="none" fill="#000000" fill-rule="nonzero" />
        <path d="M2200 470C 2189 459 2180 442 2180 432C 2180 408 2211 380 2237 380C 2260 380 2290 410 2290 433C 2290 454 2255 490 2235 490C 2227 490 2211 481 2200 470z" stroke="none" fill="#000000" fill-rule="nonzero" />
        <path d="M129 457C 20 399 -29 260 21 150C 64 54 138 6 240 6C 366 6 462 91 477 218C 488 314 435 413 350 456C 287 489 190 489 129 457z" stroke="none" fill="#000000" fill-rule="nonzero" />
        <path d="M578 450C 484 377 480 130 571 39C 598 12 651 14 679 44C 759 129 760 354 681 439C 647 475 614 479 578 450z" stroke="none" fill="#000000" fill-rule="nonzero" />
        <path d="M993 459C 1008 450 1010 429 1010 240C 1010 83 1007 30 998 27C 991 24 1002 21 1024 21C 1056 20 1060 22 1051 34C 1043 43 1040 100 1042 216L1042 216L1045 383L1121 204C 1162 106 1201 26 1206 26C 1211 27 1250 110 1293 211C 1336 312 1373 396 1375 399C 1378 401 1380 324 1380 227C 1380 59 1379 50 1358 30L1358 30L1336 10L1426 10C 1500 11 1512 13 1498 23C 1484 34 1481 64 1478 239C 1475 432 1476 442 1495 456C 1513 470 1509 471 1445 468L1445 468L1376 465L1315 323C 1282 244 1253 180 1250 180C 1247 180 1218 245 1185 325L1185 325L1125 470L1050 470C 994 469 979 467 993 459z" stroke="none" fill="#000000" fill-rule="nonzero" />
        <path d="M788 424C 770 384 770 94 788 63C 795 50 805 40 809 40C 856 40 862 393 815 439C 803 452 799 450 788 424z" stroke="none" fill="#000000" fill-rule="nonzero" />
        <path d="M1605 350C 1577 339 1533 290 1521 257C 1494 187 1516 84 1567 40C 1630 -15 1732 5 1770 80C 1797 133 1795 149 1766 117C 1704 50 1612 82 1594 178L1594 178L1588 210L1689 210L1790 210L1790 238C 1790 320 1685 384 1605 350zM1696 305C 1723 239 1718 230 1649 230C 1590 230 1588 231 1594 253C 1597 265 1600 280 1600 286C 1600 304 1640 340 1661 340C 1674 340 1686 329 1696 305z" stroke="none" fill="#000000" fill-rule="nonzero" />
        <path d="M2210 337C 2155 320 2149 316 2168 309C 2189 301 2190 296 2190 155L2190 155L2190 10L2257 10C 2320 10 2322 11 2307 28C 2293 44 2290 71 2290 203C 2290 289 2287 360 2283 359C 2278 358 2246 349 2210 337z" stroke="none" fill="#000000" fill-rule="nonzero" />
        <path d="M2395 343C 2312 320 2313 320 2333 309C 2347 300 2350 284 2350 196C 2350 42 2367 10 2448 10C 2477 10 2494 17 2514 36L2514 36L2540 63L2540 36C 2540 10 2541 10 2608 10C 2666 11 2673 12 2658 24C 2642 36 2640 56 2640 192C 2640 277 2638 349 2634 352C 2631 355 2608 351 2582 344C 2505 321 2507 322 2524 304C 2544 284 2547 91 2528 72C 2512 56 2473 57 2463 73C 2459 79 2453 146 2450 221L2450 221L2445 357L2395 343z" stroke="none" fill="#000000" fill-rule="nonzero" />
        <path d="M2745 343C 2663 320 2665 321 2683 307C 2697 297 2700 271 2702 155L2702 155L2705 15L2770 12C 2832 9 2834 9 2817 28C 2803 43 2800 68 2800 167C 2800 297 2807 315 2852 308C 2875 305 2875 302 2880 160L2880 160L2885 15L2950 12C 3012 9 3014 9 2997 28C 2983 43 2980 68 2980 167C 2980 297 2987 315 3032 308C 3055 305 3055 302 3060 160L3060 160L3065 15L3135 13C 3202 11 3204 11 3183 26C 3161 42 3160 49 3160 172L3160 172L3160 302L3131 331C 3088 373 3029 368 2989 317C 2972 297 2972 297 2966 317C 2959 339 2921 360 2889 360C 2862 360 2810 332 2809 317C 2808 311 2805 317 2801 331L2801 331L2795 357L2745 343z" stroke="none" fill="#000000" fill-rule="nonzero" />
	</g>
</g>
</svg>