<?xml version="1.0" standalone="no"?>
<!DOCTYPE svg PUBLIC "-//W3C//DTD SVG 20010904//EN"
 "http://www.w3.org/TR/2001/REC-SVG-20010904/DTD/svg10.dtd">
<svg version="1.0" xmlns="http://www.w3.org/2000/svg"
 width="320.000000pt" height="49.000000pt" viewBox="0 0 320.000000 49.000000"
 preserveAspectRatio="xMidYMid meet">

<g transform="translate(0.000000,49.000000) scale(0.100000,-0.100000)"
fill="#000000" stroke="none">
<path d="M2035 465 c-54 -17 -64 -23 -45 -26 21 -3 25 -10 28 -46 l3 -41 -39
5 c-109 15 -197 -119 -162 -246 17 -65 58 -101 113 -101 32 0 49 6 63 21 l18
20 8 -20 c6 -18 16 -21 75 -21 l67 0 -22 20 c-21 20 -22 27 -22 240 0 121 -3
220 -7 219 -5 -1 -39 -11 -78 -24z m-20 -265 l0 -135 -30 0 c-41 0 -65 48 -65
132 0 96 28 148 75 141 19 -3 20 -10 20 -138z"/>
<path d="M2200 470 c-11 -11 -20 -28 -20 -38 0 -24 31 -52 57 -52 23 0 53 30
53 53 0 21 -35 57 -55 57 -8 0 -24 -9 -35 -20z"/>
<path d="M129 457 c-109 -58 -158 -197 -108 -307 43 -96 117 -144 219 -144
126 0 222 85 237 212 11 96 -42 195 -127 238 -63 33 -160 33 -221 1z"/>
<path d="M578 450 c-94 -73 -98 -320 -7 -411 27 -27 80 -25 108 5 80 85 81
310 2 395 -34 36 -67 40 -103 11z"/>
<path d="M993 459 c15 -9 17 -30 17 -219 0 -157 -3 -210 -12 -213 -7 -3 4 -6
26 -6 32 -1 36 1 27 13 -8 9 -11 66 -9 182 l3 167 76 -179 c41 -98 80 -178 85
-178 5 1 44 84 87 185 43 101 80 185 82 188 3 2 5 -75 5 -172 0 -168 -1 -177
-22 -197 l-22 -20 90 0 c74 1 86 3 72 13 -14 11 -17 41 -20 216 -3 193 -2 203
17 217 18 14 14 15 -50 12 l-69 -3 -61 -142 c-33 -79 -62 -143 -65 -143 -3 0
-32 65 -65 145 l-60 145 -75 0 c-56 -1 -71 -3 -57 -11z"/>
<path d="M788 424 c-18 -40 -18 -330 0 -361 7 -13 17 -23 21 -23 47 0 53 353
6 399 -12 13 -16 11 -27 -15z"/>
<path d="M1605 350 c-28 -11 -72 -60 -84 -93 -27 -70 -5 -173 46 -217 63 -55
165 -35 203 40 27 53 25 69 -4 37 -62 -67 -154 -35 -172 61 l-6 32 101 0 101
0 0 28 c0 82 -105 146 -185 112z m91 -45 c27 -66 22 -75 -47 -75 -59 0 -61 1
-55 23 3 12 6 27 6 33 0 18 40 54 61 54 13 0 25 -11 35 -35z"/>
<path d="M2210 337 c-55 -17 -61 -21 -42 -28 21 -8 22 -13 22 -154 l0 -145 67
0 c63 0 65 1 50 18 -14 16 -17 43 -17 175 0 86 -3 157 -7 156 -5 -1 -37 -10
-73 -22z"/>
<path d="M2395 343 c-83 -23 -82 -23 -62 -34 14 -9 17 -25 17 -113 0 -154 17
-186 98 -186 29 0 46 7 66 26 l26 27 0 -27 c0 -26 1 -26 68 -26 58 1 65 2 50
14 -16 12 -18 32 -18 168 0 85 -2 157 -6 160 -3 3 -26 -1 -52 -8 -77 -23 -75
-22 -58 -40 20 -20 23 -213 4 -232 -16 -16 -55 -15 -65 1 -4 6 -10 73 -13 148
l-5 136 -50 -14z"/>
<path d="M2745 343 c-82 -23 -80 -22 -62 -36 14 -10 17 -36 19 -152 l3 -140
65 -3 c62 -3 64 -3 47 16 -14 15 -17 40 -17 139 0 130 7 148 52 141 23 -3 23
-6 28 -148 l5 -145 65 -3 c62 -3 64 -3 47 16 -14 15 -17 40 -17 139 0 130 7
148 52 141 23 -3 23 -6 28 -148 l5 -145 70 -2 c67 -2 69 -2 48 13 -22 16 -23
23 -23 146 l0 130 -29 29 c-43 42 -102 37 -142 -14 -17 -20 -17 -20 -23 0 -7
22 -45 43 -77 43 -27 0 -79 -28 -80 -43 -1 -6 -4 0 -8 14 l-6 26 -50 -14z"/>
</g>
</svg>
